<?xml version="1.0" ?><!DOCTYPE svg  PUBLIC '-//W3C//DTD SVG 1.1//EN'  'http://www.w3.org/Graphics/SVG/1.1/DTD/svg11.dtd'><svg enable-background="new 0 0 128 128" id="Слой_1" version="1.1" viewBox="0 0 128 128" xml:space="preserve" xmlns="http://www.w3.org/2000/svg" xmlns:xlink="http://www.w3.org/1999/xlink"><g><g><g><path d="M64,100.198c-1.201,0-1.907-0.906-2.163-1.496L39.318,58.247c-1.914-3.663-3.049-8.333-3.049-12.517     C36.27,30.439,48.709,18,64,18s27.73,12.439,27.73,27.73c0,4.285-1.148,8.914-3.151,12.698L66.155,98.717     C65.887,99.291,65.16,100.198,64,100.198z M63.673,97.907c0,0,0.136,0.291,0.327,0.291c0.146,0,0.321-0.279,0.343-0.328     c0.013-0.03,0.028-0.061,0.044-0.09l22.435-40.306c1.846-3.487,2.909-7.774,2.909-11.744C89.73,31.543,78.188,20,64,20     S38.27,31.543,38.27,45.73c0,3.818,1.076,8.25,2.809,11.566L63.613,97.78C63.636,97.821,63.655,97.863,63.673,97.907     L63.673,97.907z" fill="#323638"/></g><g><path d="M64,66.697c-11.687,0-21.194-9.395-21.194-20.942S52.313,24.812,64,24.812s21.194,9.395,21.194,20.942     S75.687,66.697,64,66.697z M64,25.812c-11.135,0-20.194,8.946-20.194,19.942S52.865,65.697,64,65.697s20.194-8.946,20.194-19.942     S75.135,25.812,64,25.812z" fill="#323638"/></g></g><g><path d="M63.91,109.5c-15.219,0-27.141-4.655-27.141-10.599c0-4.656,7.247-8.604,18.462-10.056    c0.277-0.039,0.524,0.157,0.561,0.432c0.035,0.274-0.158,0.524-0.432,0.561c-10.357,1.341-17.591,5.067-17.591,9.063    c0,5.203,11.971,9.599,26.141,9.599s26.141-4.396,26.141-9.599c0-3.955-7.139-7.67-17.361-9.033    c-0.273-0.037-0.466-0.288-0.43-0.562c0.037-0.274,0.291-0.464,0.562-0.43c11.073,1.478,18.229,5.413,18.229,10.025    C91.051,104.845,79.129,109.5,63.91,109.5z" fill="#323638"/></g></g></svg>